<svg width="19" height="19" viewBox="0 0 19 19" fill="none" xmlns="http://www.w3.org/2000/svg">
<path d="M15.0417 6.33334L11.875 9.5H14.25C14.25 12.1204 12.1204 14.25 9.49999 14.25C8.70041 14.25 7.94041 14.0521 7.28332 13.6958L6.12749 14.8517C7.10124 15.4692 8.25707 15.8333 9.49999 15.8333C12.9992 15.8333 15.8333 12.9992 15.8333 9.5H18.2083L15.0417 6.33334ZM4.74999 9.5C4.74999 6.87959 6.87957 4.75001 9.49999 4.75001C10.2996 4.75001 11.0596 4.94792 11.7167 5.30417L12.8725 4.14834C11.8987 3.53084 10.7429 3.16667 9.49999 3.16667C6.00082 3.16667 3.16666 6.00084 3.16666 9.5H0.791656L3.95832 12.6667L7.12499 9.5H4.74999Z" fill="black"/>
</svg>
